<?xml version="1.0" encoding="UTF-8" standalone="no"?>
<svg
   xmlns:osb="http://www.openswatchbook.org/uri/2009/osb"
   xmlns:dc="http://purl.org/dc/elements/1.1/"
   xmlns:cc="http://creativecommons.org/ns#"
   xmlns:rdf="http://www.w3.org/1999/02/22-rdf-syntax-ns#"
   xmlns:svg="http://www.w3.org/2000/svg"
   xmlns="http://www.w3.org/2000/svg"
   id="svg8"
   version="1.1"
   viewBox="0 0 320 568"
   height="568mm"
   width="320mm">
  <defs
     id="defs2">
     <clipPath id="clipPath">
      <path d="m 148.16666,-253.33331 v 21.16666 0 H 127 v 21.16667 h 21.16666 v 31.75 H 18.520833 v 21.16667 H 148.16666 V 106.50002 L 127,85.333352 v 31.749998 l 21.16666,21.16667 v 116.41667 h 21.16667 V 159.41668 L 190.5,180.58335 v -31.74999 l -21.16667,-21.16666 0,-285.75001 H 301.625 v -21.16667 H 169.33333 l 0,-31.75 H 190.5 v -21.16667 h -21.16667 v -21.16666 z" />
     </clipPath>
    <linearGradient
       osb:paint="solid"
       id="linearGradient875">
      <stop
         id="stop873"
         offset="0"
         style="stop-color:#5c6bc0;stop-opacity:1;" />
    </linearGradient>
  </defs>
  <path d="M0,560 V2000 H1000 V560 Q 950 510, 900 560 T 800 560 T 700 560 T 600 560 T 500 560 T 400 560 T 300 560 T 200 560 T 100 560 T 0 560z" fill="indigo" clip-path="url(#clipPath)">
    <animate 
      attributeName="d"
      values="M0,560 V2000 H1000 V560 Q 950 510, 900 560 T 800 560 T 700 560 T 600 560 T 500 560 T 400 560 T 300 560 T 200 560 T 100 560 T 0 560z;
      M-500,0 V2000 H500 V0 Q 450 -50, 400 0 T 300 0 T 200 0 T 100 0 T 0 0 T -100 0 T -200 0 T -300 0 T -400 0 T -500 0z"
      keyTimes="0; 1"
      dur="9s"
      fill="freeze"
    />
  </path>
</svg>
