<?xml version="1.0" standalone="no"?>
<!DOCTYPE svg PUBLIC "-//W3C//DTD SVG 20010904//EN"
 "http://www.w3.org/TR/2001/REC-SVG-20010904/DTD/svg10.dtd">
<svg version="1.0" xmlns="http://www.w3.org/2000/svg"
 width="700.000000pt" height="700.000000pt" viewBox="0 0 700.000000 700.000000"
 preserveAspectRatio="xMidYMid meet">
<metadata>
Created by potrace 1.11, written by Peter Selinger 2001-2013
</metadata>
<g transform="translate(0.000000,700.000000) scale(0.100000,-0.100000)"
fill="#000000" stroke="none">
<path d="M3184 6556 c1 -290 -1 -335 -14 -338 -8 -2 -160 -3 -337 -3 l-323 1
0 -358 c0 -197 3 -359 8 -359 4 -1 153 -2 332 -4 179 -1 327 -3 330 -4 4 -1 5
-553 1 -608 -1 -10 -243 -13 -1176 -13 l-1175 0 0 -57 c-1 -100 -1 -627 -1
-645 1 -17 66 -18 1178 -20 l1177 -3 1 -790 c1 -434 0 -793 -2 -797 -2 -3 -77
68 -168 158 -90 90 -165 164 -167 164 -2 0 -2 -166 -2 -368 l2 -369 159 -159
c88 -87 164 -168 170 -179 5 -12 9 -347 8 -858 l-1 -837 360 2 360 3 0 652 c0
359 1 652 2 650 2 -1 78 -76 169 -166 l165 -164 0 370 0 370 -167 167 -168
167 -1 995 0 994 1178 0 1178 0 0 360 0 360 -1178 0 -1178 0 0 313 1 312 336
0 336 0 -1 360 -1 360 -333 0 c-182 0 -333 2 -333 5 -1 3 -3 154 -3 335 l-2
330 -361 3 -360 2 1 -334z"/>
</g>
</svg>
